<?xml version="1.0" encoding="UTF-8"?>
<svg xmlns="http://www.w3.org/2000/svg" xmlns:xlink="http://www.w3.org/1999/xlink" viewBox="0 0 24 24" version="1.1" width="24px" height="24px">
<g id="surface1">
<path style=" " d="M 12 1 L 2.972656 6.417969 C 2.367188 6.777344 2 7.429688 2 8.132813 L 2 19 C 2 20.105469 2.894531 21 4 21 L 20 21 C 21.105469 21 22 20.105469 22 19 L 22 8.132813 C 22 7.429688 21.632813 6.777344 21.027344 6.417969 Z M 17 14 L 7 14 L 7 12 L 17 12 Z M 17 10 L 7 10 L 7 8 L 17 8 Z M 17 18 L 7 18 L 7 16 L 17 16 Z "/>
</g>
</svg>
